<svg id="visual" viewBox="0 0 900 600" width="900" height="600" xmlns="http://www.w3.org/2000/svg" xmlns:xlink="http://www.w3.org/1999/xlink" version="1.1"><g stroke-width="1" stroke-linejoin="bevel"><path d="M439 346.9L385 373.9L459 402.6Z" fill="#009473" stroke="#009473"></path><path d="M385 373.9L334 407.6L459 402.6Z" fill="#009473" stroke="#009473"></path><path d="M532 243.1L421 258.1L439 346.9Z" fill="#004e33" stroke="#004e33"></path><path d="M439 346.9L421 258.1L385 373.9Z" fill="#025b3f" stroke="#025b3f"></path><path d="M385 373.9L287 364.9L334 407.6Z" fill="#004e33" stroke="#004e33"></path><path d="M459 402.6L554 351.9L439 346.9Z" fill="#03694b" stroke="#03694b"></path><path d="M545 489.3L546 444.6L459 402.6Z" fill="#009473" stroke="#009473"></path><path d="M459 402.6L546 444.6L554 351.9Z" fill="#037758" stroke="#037758"></path><path d="M357 247.1L287 364.9L385 373.9Z" fill="#03694b" stroke="#03694b"></path><path d="M334 500.3L459 402.6L334 407.6Z" fill="#004e33" stroke="#004e33"></path><path d="M334 500.3L436 530.3L459 402.6Z" fill="#00270f" stroke="#00270f"></path><path d="M279 450.6L334 500.3L334 407.6Z" fill="#001e00" stroke="#001e00"></path><path d="M421 258.1L357 247.1L385 373.9Z" fill="#03694b" stroke="#03694b"></path><path d="M287 364.9L279 450.6L334 407.6Z" fill="#037758" stroke="#037758"></path><path d="M436 530.3L545 489.3L459 402.6Z" fill="#025b3f" stroke="#025b3f"></path><path d="M546 444.6L602 401.6L554 351.9Z" fill="#025b3f" stroke="#025b3f"></path><path d="M554 351.9L532 243.1L439 346.9Z" fill="#00331b" stroke="#00331b"></path><path d="M421 258.1L342 194.4L357 247.1Z" fill="#037758" stroke="#037758"></path><path d="M279 450.6L290 502.3L334 500.3Z" fill="#03694b" stroke="#03694b"></path><path d="M378 600L451 600L436 530.3Z" fill="#00331b" stroke="#00331b"></path><path d="M633 504.3L602 401.6L546 444.6Z" fill="#025b3f" stroke="#025b3f"></path><path d="M554 351.9L605 353.9L532 243.1Z" fill="#001e00" stroke="#001e00"></path><path d="M602 401.6L605 353.9L554 351.9Z" fill="#00331b" stroke="#00331b"></path><path d="M532 243.1L474 198.4L421 258.1Z" fill="#000000" stroke="#000000"></path><path d="M474 198.4L342 194.4L421 258.1Z" fill="#004027" stroke="#004027"></path><path d="M357 247.1L270 246.1L287 364.9Z" fill="#009473" stroke="#009473"></path><path d="M342 194.4L270 246.1L357 247.1Z" fill="#001e00" stroke="#001e00"></path><path d="M287 364.9L209 361.9L279 450.6Z" fill="#001e00" stroke="#001e00"></path><path d="M208 260.1L209 361.9L287 364.9Z" fill="#03694b" stroke="#03694b"></path><path d="M279 450.6L167 483.3L290 502.3Z" fill="#037758" stroke="#037758"></path><path d="M378 600L436 530.3L334 500.3Z" fill="#037758" stroke="#037758"></path><path d="M436 530.3L543 600L545 489.3Z" fill="#009473" stroke="#009473"></path><path d="M290 600L378 600L334 500.3Z" fill="#000000" stroke="#000000"></path><path d="M532 243.1L556 182.4L474 198.4Z" fill="#00270f" stroke="#00270f"></path><path d="M474 198.4L428 91.7L342 194.4Z" fill="#00331b" stroke="#00331b"></path><path d="M630 230.1L556 182.4L532 243.1Z" fill="#03694b" stroke="#03694b"></path><path d="M545 489.3L633 504.3L546 444.6Z" fill="#037758" stroke="#037758"></path><path d="M602 401.6L689 325.9L605 353.9Z" fill="#009473" stroke="#009473"></path><path d="M618 600L633 504.3L545 489.3Z" fill="#004e33" stroke="#004e33"></path><path d="M451 600L543 600L436 530.3Z" fill="#000000" stroke="#000000"></path><path d="M270 246.1L208 260.1L287 364.9Z" fill="#004027" stroke="#004027"></path><path d="M266 185.4L208 260.1L270 246.1Z" fill="#00270f" stroke="#00270f"></path><path d="M350 98.7L266 185.4L342 194.4Z" fill="#001e00" stroke="#001e00"></path><path d="M342 194.4L266 185.4L270 246.1Z" fill="#009473" stroke="#009473"></path><path d="M174 600L290 600L290 502.3Z" fill="#00331b" stroke="#00331b"></path><path d="M290 502.3L290 600L334 500.3Z" fill="#000000" stroke="#000000"></path><path d="M605 353.9L630 230.1L532 243.1Z" fill="#028565" stroke="#028565"></path><path d="M689 325.9L630 230.1L605 353.9Z" fill="#00331b" stroke="#00331b"></path><path d="M63 356.9L164 401.6L209 361.9Z" fill="#025b3f" stroke="#025b3f"></path><path d="M209 361.9L164 401.6L279 450.6Z" fill="#00270f" stroke="#00270f"></path><path d="M750 402.6L689 325.9L602 401.6Z" fill="#004027" stroke="#004027"></path><path d="M164 401.6L167 483.3L279 450.6Z" fill="#025b3f" stroke="#025b3f"></path><path d="M543 600L618 600L545 489.3Z" fill="#001e00" stroke="#001e00"></path><path d="M633 504.3L750 402.6L602 401.6Z" fill="#00270f" stroke="#00270f"></path><path d="M522 107.7L474 198.4L556 182.4Z" fill="#037758" stroke="#037758"></path><path d="M522 107.7L428 91.7L474 198.4Z" fill="#03694b" stroke="#03694b"></path><path d="M619 160.4L522 107.7L556 182.4Z" fill="#000000" stroke="#000000"></path><path d="M428 91.7L350 98.7L342 194.4Z" fill="#004e33" stroke="#004e33"></path><path d="M699 238.1L619 160.4L630 230.1Z" fill="#009473" stroke="#009473"></path><path d="M630 230.1L619 160.4L556 182.4Z" fill="#000000" stroke="#000000"></path><path d="M618 600L694 520.3L633 504.3Z" fill="#001e00" stroke="#001e00"></path><path d="M782 260.1L699 238.1L689 325.9Z" fill="#000000" stroke="#000000"></path><path d="M689 325.9L699 238.1L630 230.1Z" fill="#028565" stroke="#028565"></path><path d="M63 356.9L117 450.6L164 401.6Z" fill="#03694b" stroke="#03694b"></path><path d="M164 401.6L117 450.6L167 483.3Z" fill="#025b3f" stroke="#025b3f"></path><path d="M167 483.3L174 600L290 502.3Z" fill="#03694b" stroke="#03694b"></path><path d="M694 520.3L750 402.6L633 504.3Z" fill="#00270f" stroke="#00270f"></path><path d="M109 600L174 600L167 483.3Z" fill="#004027" stroke="#004027"></path><path d="M189 92.7L154 158.4L266 185.4Z" fill="#000000" stroke="#000000"></path><path d="M266 185.4L154 158.4L208 260.1Z" fill="#03694b" stroke="#03694b"></path><path d="M208 260.1L103 232.1L209 361.9Z" fill="#004e33" stroke="#004e33"></path><path d="M722 146.4L630 95.7L619 160.4Z" fill="#03694b" stroke="#03694b"></path><path d="M619 160.4L630 95.7L522 107.7Z" fill="#037758" stroke="#037758"></path><path d="M545 0L419 0L428 91.7Z" fill="#004027" stroke="#004027"></path><path d="M154 158.4L103 232.1L208 260.1Z" fill="#03694b" stroke="#03694b"></path><path d="M618 600L708 600L694 520.3Z" fill="#00270f" stroke="#00270f"></path><path d="M803 484.3L805 446.6L750 402.6Z" fill="#004027" stroke="#004027"></path><path d="M103 232.1L63 356.9L209 361.9Z" fill="#00270f" stroke="#00270f"></path><path d="M59 521.3L109 600L167 483.3Z" fill="#00270f" stroke="#00270f"></path><path d="M350 98.7L249 62.7L266 185.4Z" fill="#037758" stroke="#037758"></path><path d="M266 0L249 62.7L350 98.7Z" fill="#009473" stroke="#009473"></path><path d="M387 0L350 98.7L428 91.7Z" fill="#037758" stroke="#037758"></path><path d="M249 62.7L189 92.7L266 185.4Z" fill="#009473" stroke="#009473"></path><path d="M0 253.1L0 311.9L103 232.1Z" fill="#009473" stroke="#009473"></path><path d="M824 353.9L782 260.1L689 325.9Z" fill="#000000" stroke="#000000"></path><path d="M699 238.1L722 146.4L619 160.4Z" fill="#00331b" stroke="#00331b"></path><path d="M824 353.9L689 325.9L750 402.6Z" fill="#03694b" stroke="#03694b"></path><path d="M792 184.4L722 146.4L699 238.1Z" fill="#009473" stroke="#009473"></path><path d="M59 521.3L167 483.3L117 450.6Z" fill="#000000" stroke="#000000"></path><path d="M545 0L428 91.7L522 107.7Z" fill="#009473" stroke="#009473"></path><path d="M419 0L387 0L428 91.7Z" fill="#00270f" stroke="#00270f"></path><path d="M803 484.3L750 402.6L694 520.3Z" fill="#009473" stroke="#009473"></path><path d="M0 447.6L59 521.3L117 450.6Z" fill="#004027" stroke="#004027"></path><path d="M804 600L803 484.3L694 520.3Z" fill="#03694b" stroke="#03694b"></path><path d="M805 446.6L824 353.9L750 402.6Z" fill="#00270f" stroke="#00270f"></path><path d="M900 334.9L824 353.9L900 434.6Z" fill="#03694b" stroke="#03694b"></path><path d="M629 0L545 0L630 95.7Z" fill="#00331b" stroke="#00331b"></path><path d="M630 95.7L545 0L522 107.7Z" fill="#000000" stroke="#000000"></path><path d="M387 0L266 0L350 98.7Z" fill="#000000" stroke="#000000"></path><path d="M249 62.7L179 0L189 92.7Z" fill="#028565" stroke="#028565"></path><path d="M792 184.4L744 116.7L722 146.4Z" fill="#00331b" stroke="#00331b"></path><path d="M722 146.4L744 116.7L630 95.7Z" fill="#004027" stroke="#004027"></path><path d="M792 184.4L699 238.1L782 260.1Z" fill="#009473" stroke="#009473"></path><path d="M900 238.1L792 184.4L782 260.1Z" fill="#025b3f" stroke="#025b3f"></path><path d="M63 356.9L0 447.6L117 450.6Z" fill="#03694b" stroke="#03694b"></path><path d="M59 521.3L0 600L109 600Z" fill="#004e33" stroke="#004e33"></path><path d="M0 311.9L0 447.6L63 356.9Z" fill="#004027" stroke="#004027"></path><path d="M59 146.4L103 232.1L154 158.4Z" fill="#025b3f" stroke="#025b3f"></path><path d="M103 232.1L0 311.9L63 356.9Z" fill="#00270f" stroke="#00270f"></path><path d="M101 99.7L154 158.4L189 92.7Z" fill="#025b3f" stroke="#025b3f"></path><path d="M179 0L101 99.7L189 92.7Z" fill="#037758" stroke="#037758"></path><path d="M101 99.7L59 146.4L154 158.4Z" fill="#00331b" stroke="#00331b"></path><path d="M726 0L629 0L630 95.7Z" fill="#004e33" stroke="#004e33"></path><path d="M708 600L804 600L694 520.3Z" fill="#037758" stroke="#037758"></path><path d="M900 434.6L824 353.9L805 446.6Z" fill="#037758" stroke="#037758"></path><path d="M0 447.6L0 513.3L59 521.3Z" fill="#037758" stroke="#037758"></path><path d="M0 186.4L0 253.1L103 232.1Z" fill="#025b3f" stroke="#025b3f"></path><path d="M266 0L179 0L249 62.7Z" fill="#00331b" stroke="#00331b"></path><path d="M0 67.7L0 186.4L59 146.4Z" fill="#03694b" stroke="#03694b"></path><path d="M0 67.7L59 146.4L101 99.7Z" fill="#00270f" stroke="#00270f"></path><path d="M59 146.4L0 186.4L103 232.1Z" fill="#004027" stroke="#004027"></path><path d="M0 513.3L0 600L59 521.3Z" fill="#000000" stroke="#000000"></path><path d="M900 434.6L805 446.6L803 484.3Z" fill="#025b3f" stroke="#025b3f"></path><path d="M824 353.9L900 334.9L782 260.1Z" fill="#00270f" stroke="#00270f"></path><path d="M830 0L726 0L744 116.7Z" fill="#00331b" stroke="#00331b"></path><path d="M900 517.3L900 434.6L803 484.3Z" fill="#028565" stroke="#028565"></path><path d="M836 111.7L744 116.7L792 184.4Z" fill="#00331b" stroke="#00331b"></path><path d="M744 116.7L726 0L630 95.7Z" fill="#00270f" stroke="#00270f"></path><path d="M900 190.4L836 111.7L792 184.4Z" fill="#009473" stroke="#009473"></path><path d="M804 600L900 517.3L803 484.3Z" fill="#025b3f" stroke="#025b3f"></path><path d="M900 334.9L900 238.1L782 260.1Z" fill="#00270f" stroke="#00270f"></path><path d="M179 0L99 0L101 99.7Z" fill="#037758" stroke="#037758"></path><path d="M900 238.1L900 190.4L792 184.4Z" fill="#004e33" stroke="#004e33"></path><path d="M804 600L900 600L900 517.3Z" fill="#00270f" stroke="#00270f"></path><path d="M99 0L0 67.7L101 99.7Z" fill="#00270f" stroke="#00270f"></path><path d="M836 111.7L830 0L744 116.7Z" fill="#001e00" stroke="#001e00"></path><path d="M900 74.7L830 0L836 111.7Z" fill="#000000" stroke="#000000"></path><path d="M900 190.4L900 74.7L836 111.7Z" fill="#00331b" stroke="#00331b"></path><path d="M99 0L0 0L0 67.7Z" fill="#028565" stroke="#028565"></path><path d="M900 74.7L900 0L830 0Z" fill="#004027" stroke="#004027"></path></g></svg>